<mxfile host="app.diagrams.net" modified="2024-07-01T10:49:59.518Z" agent="Mozilla/5.0 (Windows NT 10.0; Win64; x64) AppleWebKit/537.36 (KHTML, like Gecko) Chrome/126.0.0.0 Safari/537.36" version="24.5.4" etag="GDE4S4k3cU-k1HTqCJSq" type="github">
  <diagram name="Page-1" id="O6LpFyOMT17v0dISsGJc">
    <mxGraphModel>
      <root>
        <mxCell id="0" />
        <mxCell id="1" parent="0" />
      </root>
    </mxGraphModel>
  </diagram>
</mxfile>
